<svg xmlns="http://www.w3.org/2000/svg" viewBox="0 0 800 560" role="img" aria-labelledby="title desc">
  <title id="title">»x‹§†¨ P!</title>
  <desc id="desc">–©…›P!– (|x Yµ |Ï§∏</desc>
  <defs>
    <linearGradient id="bg" x1="0%" y1="0%" x2="100%" y2="100%">
      <stop offset="0%" style="stop-color:#7c3aed"/>
      <stop offset="50%" style="stop-color:#6366f1"/>
      <stop offset="100%" style="stop-color:#4f46e5"/>
    </linearGradient>
    <linearGradient id="card" x1="0%" y1="0%" x2="0%" y2="100%">
      <stop offset="0%" style="stop-color:#ffffff;stop-opacity:0.22"/>
      <stop offset="100%" style="stop-color:#ffffff;stop-opacity:0.06"/>
    </linearGradient>
  </defs>
  <rect width="800" height="560" rx="32" fill="url(#bg)"/>
  <circle cx="120" cy="100" r="140" fill="#ffffff" fill-opacity="0.08"/>
  <circle cx="720" cy="480" r="180" fill="#ffffff" fill-opacity="0.06"/>
  <rect x="140" y="120" width="520" height="320" rx="24" fill="url(#card)" stroke="#ffffff" stroke-opacity="0.25" stroke-width="2"/>
  <path fill="#ffffff" fill-opacity="0.95" d="M280 200h240v12H280zm0 40h200v12H280zm0 40h220v12H280zm0 40h160v12H280z"/>
  <g transform="translate(400 280)">
    <path fill="#fde68a" d="M-60-20c0-33 27-60 60-60s60 27 60 60-27 60-60 60-60-27-60-60zm0 0" opacity="0.9"/>
    <path fill="#ffffff" d="M-45 25h90c8 0 15 7 15 15v35H-60V40c0-8 7-15 15-15z" opacity="0.95"/>
    <rect x="-70" y="-5" width="140" height="8" rx="4" fill="#ffffff" opacity="0.35"/>
  </g>
  <text x="400" y="500" text-anchor="middle" fill="#ffffff" fill-opacity="0.85" font-family="system-ui, -apple-system, sans-serif" font-size="22" font-weight="600">MindStory LMS</text>
</svg>
